<svg width="32" height="32" viewBox="0 0 32 32" xmlns="http://www.w3.org/2000/svg">
  <defs>
    <linearGradient id="grad1" x1="0%" y1="0%" x2="100%" y2="100%">
      <stop offset="0%" style="stop-color:#8b5cf6;stop-opacity:1" />
      <stop offset="100%" style="stop-color:#3b82f6;stop-opacity:1" />
    </linearGradient>
    <linearGradient id="grad2" x1="0%" y1="0%" x2="100%" y2="100%">
      <stop offset="0%" style="stop-color:#a855f7;stop-opacity:1" />
      <stop offset="100%" style="stop-color:#6366f1;stop-opacity:1" />
    </linearGradient>
  </defs>
  
  <!-- Background circle with gradient -->
  <circle cx="16" cy="16" r="15" fill="url(#grad1)" stroke="none"/>
  
  <!-- Mathematical symbols -->
  <!-- Sigma (summation) symbol -->
  <path d="M8 9 L14 9 L14 10.5 L10.5 13.5 L14 16.5 L14 18 L8 18 L8 16.5 L11.5 16.5 L8.5 14 L11.5 11.5 L8 11.5 Z" fill="white" opacity="0.9"/>
  
  <!-- Integral symbol -->
  <path d="M17 8 C18.5 8 19 9 19 10 L19 22 C19 23 18.5 24 17 24 C16.5 24 16 23.5 16 23 C16 22.5 16.5 22 17 22 C17.2 22 17.5 21.8 17.5 21.5 L17.5 10.5 C17.5 10.2 17.2 10 17 10 C16.5 10 16 9.5 16 9 C16 8.5 16.5 8 17 8 Z" fill="white" opacity="0.9"/>
  
  <!-- Mathematical operators -->
  <!-- Plus -->
  <line x1="22" y1="11" x2="26" y2="11" stroke="white" stroke-width="1.5" opacity="0.8"/>
  <line x1="24" y1="9" x2="24" y2="13" stroke="white" stroke-width="1.5" opacity="0.8"/>
  
  <!-- Equals -->
  <line x1="22" y1="17" x2="26" y2="17" stroke="white" stroke-width="1.5" opacity="0.8"/>
  <line x1="22" y1="19" x2="26" y2="19" stroke="white" stroke-width="1.5" opacity="0.8"/>
  
  <!-- Power notation (x^2) -->
  <text x="23" y="23" font-family="serif" font-size="6" fill="white" opacity="0.8">x²</text>
</svg>
